<svg width="2000" height="1423" viewBox="0 0 2000 1423" fill="none" xmlns="http://www.w3.org/2000/svg">
<g clip-path="url(#clip0_245_413)">
<rect width="2000" height="1422.22" fill="url(#paint0_linear_245_413)"/>
<path d="M53.1724 59.353L52.7288 60.0261L53.0569 60.7625L52.3838 60.3189L51.6474 60.647L52.091 59.9739L51.7629 59.2375L52.436 59.6811L53.1724 59.353Z" fill="white"/>
<path d="M244.582 116.762L244.138 117.436L244.466 118.172L243.793 117.728L243.057 118.056L243.5 117.383L243.172 116.647L243.845 117.091L244.582 116.762Z" fill="white"/>
<path d="M127.582 182.762L127.138 183.436L127.466 184.172L126.793 183.728L126.057 184.056L126.5 183.383L126.172 182.647L126.845 183.091L127.582 182.762Z" fill="white"/>
<path d="M145.582 77.7625L145.138 78.4356L145.466 79.172L144.793 78.7284L144.057 79.0565L144.5 78.3834L144.172 77.647L144.845 78.0906L145.582 77.7625Z" fill="white"/>
<path d="M90.5816 102.762L90.138 103.436L90.4661 104.172L89.793 103.728L89.0566 104.056L89.5002 103.383L89.1721 102.647L89.8452 103.091L90.5816 102.762Z" fill="white"/>
<path d="M438.582 165.762L438.138 166.436L438.466 167.172L437.793 166.728L437.057 167.056L437.5 166.383L437.172 165.647L437.845 166.091L438.582 165.762Z" fill="white"/>
<path d="M263.582 61.7625L263.138 62.4356L263.466 63.172L262.793 62.7284L262.057 63.0565L262.5 62.3834L262.172 61.647L262.845 62.0906L263.582 61.7625Z" fill="white"/>
<path d="M687.582 119.762L687.138 120.436L687.466 121.172L686.793 120.728L686.057 121.056L686.5 120.383L686.172 119.647L686.845 120.091L687.582 119.762Z" fill="white"/>
<path d="M455.582 283.762L455.138 284.436L455.466 285.172L454.793 284.728L454.057 285.056L454.5 284.383L454.172 283.647L454.845 284.091L455.582 283.762Z" fill="white"/>
<path d="M262.582 204.762L262.138 205.436L262.466 206.172L261.793 205.728L261.057 206.056L261.5 205.383L261.172 204.647L261.845 205.091L262.582 204.762Z" fill="white"/>
<path d="M254.582 359.762L254.138 360.436L254.466 361.172L253.793 360.728L253.057 361.056L253.5 360.383L253.172 359.647L253.845 360.091L254.582 359.762Z" fill="white"/>
<path d="M852.582 345.762L852.138 346.436L852.466 347.172L851.793 346.728L851.057 347.056L851.5 346.383L851.172 345.647L851.845 346.091L852.582 345.762Z" fill="white"/>
<path d="M1045.58 148.762L1045.14 149.436L1045.47 150.172L1044.79 149.728L1044.06 150.056L1044.5 149.383L1044.17 148.647L1044.85 149.091L1045.58 148.762Z" fill="white"/>
<path d="M1320.58 324.762L1320.14 325.436L1320.47 326.172L1319.79 325.728L1319.06 326.056L1319.5 325.383L1319.17 324.647L1319.85 325.091L1320.58 324.762Z" fill="white"/>
<path d="M1194.58 638.762L1194.14 639.436L1194.47 640.172L1193.79 639.728L1193.06 640.056L1193.5 639.383L1193.17 638.647L1193.85 639.091L1194.58 638.762Z" fill="white"/>
<path d="M1323.58 838.762L1323.14 839.436L1323.47 840.172L1322.79 839.728L1322.06 840.056L1322.5 839.383L1322.17 838.647L1322.85 839.091L1323.58 838.762Z" fill="white"/>
<path d="M1014.58 873.762L1014.14 874.436L1014.47 875.172L1013.79 874.728L1013.06 875.056L1013.5 874.383L1013.17 873.647L1013.85 874.091L1014.58 873.762Z" fill="white"/>
<path d="M658.582 835.762L658.138 836.436L658.466 837.172L657.793 836.728L657.057 837.056L657.5 836.383L657.172 835.647L657.845 836.091L658.582 835.762Z" fill="white"/>
<path d="M834.582 456.762L834.138 457.436L834.466 458.172L833.793 457.728L833.057 458.056L833.5 457.383L833.172 456.647L833.845 457.091L834.582 456.762Z" fill="white"/>
<path d="M562.582 377.762L562.138 378.436L562.466 379.172L561.793 378.728L561.057 379.056L561.5 378.383L561.172 377.647L561.845 378.091L562.582 377.762Z" fill="white"/>
<path d="M353.582 755.762L353.138 756.436L353.466 757.172L352.793 756.728L352.057 757.056L352.5 756.383L352.172 755.647L352.845 756.091L353.582 755.762Z" fill="white"/>
<path d="M110.582 641.762L110.138 642.436L110.466 643.172L109.793 642.728L109.057 643.056L109.5 642.383L109.172 641.647L109.845 642.091L110.582 641.762Z" fill="white"/>
<path d="M113.582 294.762L113.138 295.436L113.466 296.172L112.793 295.728L112.057 296.056L112.5 295.383L112.172 294.647L112.845 295.091L113.582 294.762Z" fill="white"/>
<path d="M435.582 327.762L435.138 328.436L435.466 329.172L434.793 328.728L434.057 329.056L434.5 328.383L434.172 327.647L434.845 328.091L435.582 327.762Z" fill="white"/>
<path d="M1002.58 330.762L1002.14 331.436L1002.47 332.172L1001.79 331.728L1001.06 332.056L1001.5 331.383L1001.17 330.647L1001.85 331.091L1002.58 330.762Z" fill="white"/>
<path d="M893.582 565.762L893.138 566.436L893.466 567.172L892.793 566.728L892.057 567.056L892.5 566.383L892.172 565.647L892.845 566.091L893.582 565.762Z" fill="white"/>
<path d="M760.582 688.762L760.138 689.436L760.466 690.172L759.793 689.728L759.057 690.056L759.5 689.383L759.172 688.647L759.845 689.091L760.582 688.762Z" fill="white"/>
<path d="M576.582 410.762L576.138 411.436L576.466 412.172L575.793 411.728L575.057 412.056L575.5 411.383L575.172 410.647L575.845 411.091L576.582 410.762Z" fill="white"/>
<path d="M793.582 229.762L793.138 230.436L793.466 231.172L792.793 230.728L792.057 231.056L792.5 230.383L792.172 229.647L792.845 230.091L793.582 229.762Z" fill="white"/>
<path d="M148.582 744.762L148.138 745.436L148.466 746.172L147.793 745.728L147.057 746.056L147.5 745.383L147.172 744.647L147.845 745.091L148.582 744.762Z" fill="white"/>
<path d="M124.582 442.762L124.138 443.436L124.466 444.172L123.793 443.728L123.057 444.056L123.5 443.383L123.172 442.647L123.845 443.091L124.582 442.762Z" fill="white"/>
<path d="M675.582 431.762L675.138 432.436L675.466 433.172L674.793 432.728L674.057 433.056L674.5 432.383L674.172 431.647L674.845 432.091L675.582 431.762Z" fill="white"/>
<path d="M896.582 856.762L896.138 857.436L896.466 858.172L895.793 857.728L895.057 858.056L895.5 857.383L895.172 856.647L895.845 857.091L896.582 856.762Z" fill="white"/>
<path d="M518.582 944.762L518.138 945.436L518.466 946.172L517.793 945.728L517.057 946.056L517.5 945.383L517.172 944.647L517.845 945.091L518.582 944.762Z" fill="white"/>
<path d="M515.582 575.762L515.138 576.436L515.466 577.172L514.793 576.728L514.057 577.056L514.5 576.383L514.172 575.647L514.845 576.091L515.582 575.762Z" fill="white"/>
<path d="M1291.58 122.762L1291.14 123.436L1291.47 124.172L1290.79 123.728L1290.06 124.056L1290.5 123.383L1290.17 122.647L1290.85 123.091L1291.58 122.762Z" fill="white"/>
<path d="M1376.58 80.7625L1376.14 81.4356L1376.47 82.172L1375.79 81.7284L1375.06 82.0565L1375.5 81.3834L1375.17 80.647L1375.85 81.0906L1376.58 80.7625Z" fill="white"/>
<path d="M1387.58 870.762L1387.14 871.436L1387.47 872.172L1386.79 871.728L1386.06 872.056L1386.5 871.383L1386.17 870.647L1386.85 871.091L1387.58 870.762Z" fill="white"/>
<path d="M1181.58 991.762L1181.14 992.436L1181.47 993.172L1180.79 992.728L1180.06 993.056L1180.5 992.383L1180.17 991.647L1180.85 992.091L1181.58 991.762Z" fill="white"/>
<path d="M1046.58 560.762L1046.14 561.436L1046.47 562.172L1045.79 561.728L1045.06 562.056L1045.5 561.383L1045.17 560.647L1045.85 561.091L1046.58 560.762Z" fill="white"/>
<path d="M622.229 644.525L621.341 645.871L621.998 647.344L620.651 646.457L619.179 647.113L620.066 645.767L619.41 644.294L620.756 645.181L622.229 644.525Z" fill="white"/>
<path d="M374.753 474.525L373.866 475.871L374.522 477.344L373.176 476.457L371.703 477.113L372.59 475.767L371.934 474.294L373.28 475.181L374.753 474.525Z" fill="white"/>
<path d="M972.753 186.525L971.866 187.871L972.522 189.344L971.176 188.457L969.703 189.113L970.59 187.767L969.934 186.294L971.28 187.181L972.753 186.525Z" fill="white"/>
<path d="M739.753 60.525L738.866 61.8712L739.522 63.3439L738.176 62.4568L736.703 63.113L737.59 61.7667L736.934 60.294L738.28 61.1811L739.753 60.525Z" fill="white"/>
<path d="M521.753 63.525L520.866 64.8712L521.522 66.3439L520.176 65.4568L518.703 66.113L519.59 64.7667L518.934 63.294L520.28 64.1811L521.753 63.525Z" fill="white"/>
<path d="M1149.75 31.525L1148.87 32.8712L1149.52 34.3439L1148.18 33.4568L1146.7 34.113L1147.59 32.7667L1146.93 31.294L1148.28 32.1811L1149.75 31.525Z" fill="white"/>
<path d="M947.753 647.525L946.866 648.871L947.522 650.344L946.176 649.457L944.703 650.113L945.59 648.767L944.934 647.294L946.28 648.181L947.753 647.525Z" fill="white"/>
<path d="M249.753 623.525L248.866 624.871L249.522 626.344L248.176 625.457L246.703 626.113L247.59 624.767L246.934 623.294L248.28 624.181L249.753 623.525Z" fill="white"/>
<path d="M216.753 939.525L215.866 940.871L216.522 942.344L215.176 941.457L213.703 942.113L214.59 940.767L213.934 939.294L215.28 940.181L216.753 939.525Z" fill="white"/>
<path d="M106.753 564.525L105.866 565.871L106.522 567.344L105.176 566.457L103.703 567.113L104.59 565.767L103.934 564.294L105.28 565.181L106.753 564.525Z" fill="white"/>
<path d="M95.753 877.525L94.8659 878.871L95.5221 880.344L94.1758 879.457L92.7031 880.113L93.5902 878.767L92.934 877.294L94.2803 878.181L95.753 877.525Z" fill="white"/>
<path d="M57.753 331.525L56.8659 332.871L57.5221 334.344L56.1758 333.457L54.7031 334.113L55.5902 332.767L54.934 331.294L56.2803 332.181L57.753 331.525Z" fill="white"/>
<path d="M784.401 95.1356L783.611 95.2979L783.322 96.0506L783.16 95.261L782.407 94.9723L783.197 94.8099L783.486 94.0573L783.648 94.8469L784.401 95.1356Z" fill="white"/>
<path d="M992.997 238.678L992.208 238.841L991.919 239.593L991.757 238.804L991.004 238.515L991.794 238.353L992.082 237.6L992.245 238.39L992.997 238.678Z" fill="white"/>
<path d="M712.983 190.595L712.193 190.757L711.904 191.51L711.742 190.72L710.989 190.432L711.779 190.269L712.068 189.517L712.23 190.306L712.983 190.595Z" fill="white"/>
<path d="M517.115 102.207L516.325 102.369L516.036 103.122L515.874 102.332L515.121 102.043L515.911 101.881L516.2 101.128L516.362 101.918L517.115 102.207Z" fill="white"/>
<path d="M949.864 515.157L949.074 515.319L948.785 516.072L948.623 515.282L947.87 514.994L948.66 514.831L948.949 514.079L949.111 514.868L949.864 515.157Z" fill="white"/>
<path d="M1225.64 512.329L1224.85 512.491L1224.56 513.244L1224.39 512.454L1223.64 512.165L1224.43 512.003L1224.72 511.25L1224.88 512.04L1225.64 512.329Z" fill="white"/>
<path d="M1295.64 831.234L1294.85 831.396L1294.56 832.149L1294.4 831.359L1293.65 831.07L1294.44 830.908L1294.72 830.155L1294.89 830.945L1295.64 831.234Z" fill="white"/>
<path d="M984.512 964.17L983.722 964.332L983.434 965.085L983.271 964.295L982.519 964.007L983.308 963.844L983.597 963.092L983.759 963.881L984.512 964.17Z" fill="white"/>
<path d="M934.307 1196.81L933.517 1196.97L933.229 1197.72L933.066 1196.93L932.314 1196.64L933.103 1196.48L933.392 1195.73L933.554 1196.52L934.307 1196.81Z" fill="white"/>
<path d="M691.063 1003.06L690.273 1003.22L689.985 1003.98L689.822 1003.19L689.07 1002.9L689.859 1002.74L690.148 1001.98L690.31 1002.77L691.063 1003.06Z" fill="white"/>
<path d="M466.203 724.461L465.413 724.623L465.124 725.376L464.962 724.586L464.209 724.297L464.999 724.135L465.288 723.382L465.45 724.172L466.203 724.461Z" fill="white"/>
<path d="M858.647 580.918L857.857 581.08L857.569 581.833L857.406 581.043L856.654 580.755L857.443 580.592L857.732 579.84L857.894 580.629L858.647 580.918Z" fill="white"/>
<path d="M722.175 332.723L721.386 332.886L721.097 333.638L720.935 332.849L720.182 332.56L720.971 332.398L721.26 331.645L721.423 332.435L722.175 332.723Z" fill="white"/>
<path d="M307.104 452.225L306.314 452.387L306.026 453.14L305.863 452.35L305.111 452.061L305.9 451.899L306.189 451.146L306.351 451.936L307.104 452.225Z" fill="white"/>
<path d="M215.887 199.787L215.097 199.95L214.809 200.702L214.646 199.913L213.894 199.624L214.683 199.462L214.972 198.709L215.134 199.499L215.887 199.787Z" fill="white"/>
<path d="M667.728 207.566L666.938 207.728L666.65 208.481L666.487 207.691L665.735 207.402L666.524 207.24L666.813 206.487L666.975 207.277L667.728 207.566Z" fill="white"/>
<path d="M1066.54 610.616L1065.75 610.779L1065.46 611.531L1065.3 610.742L1064.54 610.453L1065.33 610.291L1065.62 609.538L1065.78 610.328L1066.54 610.616Z" fill="white"/>
<path d="M823.291 699.712L822.502 699.874L822.213 700.627L822.051 699.837L821.298 699.549L822.088 699.386L822.376 698.634L822.539 699.423L823.291 699.712Z" fill="white"/>
<path d="M642.272 692.641L641.482 692.803L641.194 693.556L641.031 692.766L640.279 692.478L641.068 692.315L641.357 691.563L641.519 692.352L642.272 692.641Z" fill="white"/>
<path d="M708.741 365.958L707.951 366.12L707.662 366.873L707.5 366.083L706.747 365.794L707.537 365.632L707.826 364.879L707.988 365.669L708.741 365.958Z" fill="white"/>
<path d="M990.169 391.413L989.38 391.576L989.091 392.328L988.929 391.539L988.176 391.25L988.966 391.088L989.254 390.335L989.417 391.125L990.169 391.413Z" fill="white"/>
<path d="M169.925 299.489L169.136 299.652L168.847 300.404L168.685 299.615L167.932 299.326L168.721 299.164L169.01 298.411L169.173 299.201L169.925 299.489Z" fill="white"/>
<path d="M366.5 68.9727L365.711 69.135L365.422 69.8877L365.26 69.0981L364.507 68.8094L365.297 68.647L365.585 67.8944L365.748 68.684L366.5 68.9727Z" fill="white"/>
<path d="M763.895 450.81L763.105 450.973L762.817 451.725L762.654 450.936L761.902 450.647L762.691 450.485L762.98 449.732L763.142 450.522L763.895 450.81Z" fill="white"/>
<path d="M619.645 907.601L618.855 907.764L618.567 908.516L618.404 907.727L617.652 907.438L618.441 907.276L618.73 906.523L618.892 907.313L619.645 907.601Z" fill="white"/>
<path d="M290.133 702.54L289.344 702.703L289.055 703.455L288.893 702.666L288.14 702.377L288.929 702.215L289.218 701.462L289.381 702.252L290.133 702.54Z" fill="white"/>
<path d="M548.934 439.497L548.144 439.659L547.856 440.412L547.693 439.622L546.941 439.333L547.73 439.171L548.019 438.418L548.181 439.208L548.934 439.497Z" fill="white"/>
<path d="M1417.97 667.892L1417.18 668.054L1416.89 668.807L1416.73 668.017L1415.97 667.729L1416.76 667.566L1417.05 666.814L1417.22 667.603L1417.97 667.892Z" fill="white"/>
<path d="M1507.77 698.298L1506.98 698.46L1506.69 699.213L1506.53 698.423L1505.78 698.134L1506.57 697.972L1506.86 697.219L1507.02 698.009L1507.77 698.298Z" fill="white"/>
<path d="M956.935 1264.69L956.145 1264.85L955.857 1265.61L955.694 1264.82L954.942 1264.53L955.731 1264.36L956.02 1263.61L956.182 1264.4L956.935 1264.69Z" fill="white"/>
<path d="M725.711 1204.59L724.922 1204.75L724.633 1205.5L724.471 1204.71L723.718 1204.42L724.508 1204.26L724.796 1203.51L724.959 1204.3L725.711 1204.59Z" fill="white"/>
<path d="M935.014 804.364L934.224 804.526L933.936 805.279L933.773 804.489L933.021 804.2L933.81 804.038L934.099 803.285L934.261 804.075L935.014 804.364Z" fill="white"/>
<path d="M575.722 563.53L574.143 563.855L573.566 565.36L573.241 563.781L571.736 563.203L573.315 562.879L573.892 561.373L574.217 562.952L575.722 563.53Z" fill="white"/>
<path d="M520.939 268.33L519.36 268.655L518.783 270.16L518.458 268.581L516.953 268.004L518.532 267.679L519.109 266.174L519.434 267.753L520.939 268.33Z" fill="white"/>
<path d="M1147.44 487.534L1145.86 487.858L1145.28 489.364L1144.95 487.784L1143.45 487.207L1145.03 486.882L1145.61 485.377L1145.93 486.956L1147.44 487.534Z" fill="white"/>
<path d="M1071.78 233.682L1070.2 234.007L1069.62 235.512L1069.29 233.933L1067.79 233.356L1069.37 233.031L1069.95 231.526L1070.27 233.105L1071.78 233.682Z" fill="white"/>
<path d="M915.505 81.6542L913.925 81.9789L913.348 83.4842L913.023 81.905L911.518 81.3276L913.097 81.0029L913.675 79.4976L913.999 81.0768L915.505 81.6542Z" fill="white"/>
<path d="M1382.2 503.09L1380.62 503.415L1380.04 504.92L1379.71 503.341L1378.21 502.763L1379.79 502.439L1380.37 500.933L1380.69 502.513L1382.2 503.09Z" fill="white"/>
<path d="M803.782 795.832L802.203 796.157L801.625 797.662L801.301 796.083L799.795 795.505L801.375 795.181L801.952 793.675L802.277 795.255L803.782 795.832Z" fill="white"/>
<path d="M327.192 285.301L325.613 285.626L325.036 287.131L324.711 285.552L323.206 284.974L324.785 284.65L325.362 283.144L325.687 284.724L327.192 285.301Z" fill="white"/>
<path d="M80.4119 485.412L78.8327 485.737L78.2553 487.242L77.9306 485.663L76.4252 485.086L78.0045 484.761L78.5819 483.256L78.9066 484.835L80.4119 485.412Z" fill="white"/>
<path d="M267.796 142.465L266.216 142.79L265.639 144.295L265.314 142.716L263.809 142.139L265.388 141.814L265.966 140.309L266.29 141.888L267.796 142.465Z" fill="white"/>
<path d="M38.6931 356.012L37.1139 356.336L36.5365 357.842L36.2118 356.262L34.7065 355.685L36.2857 355.36L36.8631 353.855L37.1878 355.434L38.6931 356.012Z" fill="white"/>
<g filter="url(#filter0_f_245_413)">
<rect x="599" y="661" width="665.525" height="127.318" fill="url(#paint1_linear_245_413)" fill-opacity="0.6"/>
</g>
<g filter="url(#filter1_f_245_413)">
<path d="M541 1407L1049 1327L1478.5 1434L1459 1821H541V1407Z" fill="url(#paint2_linear_245_413)" fill-opacity="0.6"/>
</g>
</g>
<defs>
<filter id="filter0_f_245_413" x="273.471" y="335.471" width="1316.58" height="778.375" filterUnits="userSpaceOnUse" color-interpolation-filters="sRGB">
<feFlood flood-opacity="0" result="BackgroundImageFix"/>
<feBlend mode="normal" in="SourceGraphic" in2="BackgroundImageFix" result="shape"/>
<feGaussianBlur stdDeviation="162.764" result="effect1_foregroundBlur_245_413"/>
</filter>
<filter id="filter1_f_245_413" x="241" y="1027" width="1537.5" height="1094" filterUnits="userSpaceOnUse" color-interpolation-filters="sRGB">
<feFlood flood-opacity="0" result="BackgroundImageFix"/>
<feBlend mode="normal" in="SourceGraphic" in2="BackgroundImageFix" result="shape"/>
<feGaussianBlur stdDeviation="150" result="effect1_foregroundBlur_245_413"/>
</filter>
<linearGradient id="paint0_linear_245_413" x1="-19.8027" y1="-63.5041" x2="1769.52" y2="1422.22" gradientUnits="userSpaceOnUse">
<stop stop-color="#1D2948"/>
<stop offset="0.248198" stop-color="#141D33"/>
<stop offset="0.380763" stop-color="#0F1628"/>
<stop offset="1" stop-color="#050A16"/>
</linearGradient>
<linearGradient id="paint1_linear_245_413" x1="617.447" y1="697.004" x2="1105.74" y2="725.692" gradientUnits="userSpaceOnUse">
<stop stop-color="#5200FF"/>
<stop offset="1" stop-color="#921BBC"/>
</linearGradient>
<linearGradient id="paint2_linear_245_413" x1="566.445" y1="1497.08" x2="1241.88" y2="1513.91" gradientUnits="userSpaceOnUse">
<stop stop-color="#04D98B"/>
<stop offset="1" stop-color="#04D98B"/>
</linearGradient>
<clipPath id="clip0_245_413">
<rect width="2000" height="1422.22" fill="white"/>
</clipPath>
</defs>
</svg>
